<?xml version="1.0" encoding="utf-8"?>
<!-- Generator: Adobe Illustrator 17.0.0, SVG Export Plug-In . SVG Version: 6.00 Build 0)  -->
<!DOCTYPE svg PUBLIC "-//W3C//DTD SVG 1.1//EN" "http://www.w3.org/Graphics/SVG/1.1/DTD/svg11.dtd">
<svg version="1.1" id="Layer_1" xmlns="http://www.w3.org/2000/svg" xmlns:xlink="http://www.w3.org/1999/xlink" x="0px" y="0px"
	 width="100px" height="100px" viewBox="0 0 100 100" enable-background="new 0 0 100 100" xml:space="preserve">
<g>
	<g>
		<defs>
			<path id="SVGID_1_" d="M5.781,71.563V28.457c0-2.461,1.309-4.746,3.438-5.977L46.543,0.918c2.129-1.23,4.766-1.23,6.895,0
				l37.344,21.543c2.129,1.23,3.438,3.516,3.438,5.977v43.105c0,2.461-1.309,4.746-3.438,5.977L53.457,99.082
				c-2.129,1.23-4.766,1.23-6.895,0L9.219,77.539C7.09,76.289,5.781,74.023,5.781,71.563z"/>
		</defs>
		<clipPath id="SVGID_2_">
			<use xlink:href="#SVGID_1_"  overflow="visible"/>
		</clipPath>
		<g clip-path="url(#SVGID_2_)">
			<rect id="black_stripe" x="-31.675" y="-0.005" width="167.05" height="100.23"/>
			<rect id="red_stripe" x="-31.675" y="33.405" fill="#DD0000" width="167.05" height="66.82"/>
			<rect id="gold_stripe" x="-31.675" y="66.815" fill="#FFCE00" width="167.05" height="33.41"/>
		</g>
	</g>
</g>
</svg>
