<svg xmlns="http://www.w3.org/2000/svg" width="86" height="86" viewBox="0 0 86 86">
  <defs>
    <style>
      .cls-1 {
        fill: #e5be9f;
        fill-rule: evenodd;
      }
    </style>
  </defs>
  <path class="cls-1" d="M24.367,25.8h2.867v2.866H24.367V25.8Zm4.3,0h4.3v2.866h-4.3V25.8Zm5.733,0h2.867v2.866H34.4V25.8ZM28.667,40.133h2.867V77.4H28.667V40.133Zm-14.333,0H17.2V77.4H14.333V40.133ZM81.7,43H74.533V38.7A1.354,1.354,0,0,0,73.1,37.267H61.633A1.354,1.354,0,0,0,60.2,38.7V43H53.033a4.223,4.223,0,0,0-4.3,4.3V81.7a4.24,4.24,0,0,0,.287,1.433H4.73a1.777,1.777,0,0,1-1.863-1.72V35.833h60.2V24.8a4.6,4.6,0,0,0-4.73-4.73H47.3V1.433A1.354,1.354,0,0,0,45.867,0H17.2a1.354,1.354,0,0,0-1.433,1.433V20.067H4.73A4.6,4.6,0,0,0,0,24.8V81.413A4.65,4.65,0,0,0,4.73,86H81.7A4.223,4.223,0,0,0,86,81.7V47.3A4.223,4.223,0,0,0,81.7,43ZM18.633,2.867h25.8V5.733h-25.8V2.867Zm0,5.734h25.8V20.067h-25.8V8.6ZM4.73,22.933H58.337A1.731,1.731,0,0,1,60.2,24.8v8.17H2.867V24.8A1.731,1.731,0,0,1,4.73,22.933ZM83.133,47.3v7.167h-4.3v-8.6H81.7A1.354,1.354,0,0,1,83.133,47.3ZM58.767,54.467v-8.6h17.2v8.6h-17.2Zm4.3-14.333h8.6V43h-8.6V40.133ZM53.033,45.867H55.9v8.6H51.6V47.3A1.354,1.354,0,0,1,53.033,45.867Zm0,37.266A1.354,1.354,0,0,1,51.6,81.7V57.333h4.3v4.3H54.467V64.5H60.2V61.633H58.767v-4.3h7.167V73.1h-4.3v2.867h4.3v7.166h-12.9Zm28.667,0H68.8v-12.9h4.3V67.367H68.8V57.333h7.167v4.3H74.533V64.5h5.733V61.633H78.833v-4.3h4.3V81.7A1.354,1.354,0,0,1,81.7,83.133Z"/>
</svg>
