<svg xmlns="http://www.w3.org/2000/svg" width="88" height="85" viewBox="0 0 88 85">
  <defs>
    <style>
      .cls-1 {
        fill: #e5be9f;
        fill-rule: evenodd;
      }
    </style>
  </defs>
  <path class="cls-1" d="M73.457,80.728a1.353,1.353,0,0,1-1.442,1.418H24.483V30.852H21.608V82.146H17.282a1.35,1.35,0,0,1-1.433-1.418V30.852H12.966V80.728A4.218,4.218,0,0,0,17.282,85H72.015a4.218,4.218,0,0,0,4.317-4.272V72.172H73.457v8.556ZM17.282,2.348H72.015a1.353,1.353,0,0,1,1.442,1.418v39.9h2.875V3.766A4.218,4.218,0,0,0,72.015-.506H17.282a4.21,4.21,0,0,0-4.069,2.854h4.069ZM51.842,22.9v2.961l0.012,0V30.85H47.545l-0.026,0H33.412a15.528,15.528,0,0,0-.62,12.875c0.147-.014.283-0.058,0.434-0.058H62.287A15.6,15.6,0,0,0,51.842,22.9ZM40.327,40.82H34.856a16.957,16.957,0,0,1-.288-2.845,13.44,13.44,0,0,1,.717-4.281h5.042V40.82Zm11.527,0H43.211V33.695h8.643V40.82Zm2.875-13.533a14.018,14.018,0,0,1,3.6,3.563h-3.6V27.287Zm0,13.533V33.695h5.043a13.44,13.44,0,0,1,.716,4.281A16.957,16.957,0,0,1,60.2,40.82H54.729ZM33.126,62.2H36V59.352H33.126V62.2Zm0,7.126H36V66.477H33.126v2.847ZM63.372,73.6H33.126v2.846H63.372V73.6ZM86.507,46.519H33.225a1.389,1.389,0,0,0-1.3.857,1.512,1.512,0,0,0,.148,1.566l6.913,8.127V67.9a1.354,1.354,0,0,0,1.442,1.427H86.507A1.354,1.354,0,0,0,87.949,67.9V47.946A1.355,1.355,0,0,0,86.507,46.519ZM85.065,66.469H41.719V56.5a2.068,2.068,0,0,0-.288-0.857l-5.183-6.269H85.065v17.1ZM44.743,56.5h2.884V53.644H44.743V56.5ZM50.5,53.644V56.5H82.19V53.644H50.5ZM47.627,62.2V59.343H44.743V62.2h2.884Zm2.875,0h2.884V59.343H50.5V62.2Zm5.759-2.854V62.2H82.188V59.343H56.261ZM47.52,28a1.355,1.355,0,0,0,1.442-1.427V15.748l6.913-8.126a1.512,1.512,0,0,0,.148-1.566,1.389,1.389,0,0,0-1.3-.857H1.439A1.355,1.355,0,0,0,0,6.626V26.575A1.355,1.355,0,0,0,1.439,28H47.52ZM2.881,8.053H51.7l-5.183,6.269a2.068,2.068,0,0,0-.288.857v9.97H2.881V8.053ZM43.2,12.325H40.319v2.854H43.2V12.325Zm-5.759,2.854V12.325H5.756v2.854H37.444ZM43.2,18.023H40.319v2.854H43.2V18.023ZM34.56,20.877h2.884V18.023H34.56v2.854Zm-2.875,0V18.023H5.758v2.854H31.685Z"/>
</svg>
