<svg xmlns="http://www.w3.org/2000/svg" width="87" height="86" viewBox="0 0 87 86">
  <defs>
    <style>
      .cls-1 {
        fill: #e5be9f;
        fill-rule: evenodd;
      }
    </style>
  </defs>
  <path class="cls-1" d="M85.4,27.953l-0.861-.569V27.241H84.394L48.075,0.494a1.319,1.319,0,0,0-1.723,0L13.334,24.681l1.723,2.276L47.213,3.34l32.444,23.9H37.165v2.846H83.1v2.845H34.293v2.845H77.36V75.614h2.871V35.778h4.307a1.35,1.35,0,0,0,1.436-1.422V29.091A1.288,1.288,0,0,0,85.4,27.953ZM44.342,13.014h5.742V15.86H44.342V13.014Zm-4.307,5.691H54.391v2.845H40.036V18.705Zm8.613,19.918H51.52v2.845H48.649V38.623Zm5.742,0h2.871v2.845H54.391V38.623Zm5.742,0H63v2.845H60.133V38.623Zm5.742,0h2.871v2.845H65.876V38.623Zm5.742,0h2.871v2.845H71.618V38.623ZM41.042,40.473a1.122,1.122,0,0,0-1-.427H29.988V30.087a1.35,1.35,0,0,0-1.435-1.423H-0.159V31.51H27.117v31.3H-0.159v2.845H27.117v5.691H-0.159v2.845H28.553a1.35,1.35,0,0,0,1.435-1.423V42.891h9.475l8.9,9.959H38.6V55.7H50.086V72.769h2.871v-18.5a1.286,1.286,0,0,0-.431-1ZM40.036,68.5a8.537,8.537,0,1,0,8.613,8.536A8.6,8.6,0,0,0,40.036,68.5Zm0,14.227a5.691,5.691,0,1,1,5.742-5.691A5.733,5.733,0,0,1,40.036,82.728ZM38.6,59.964h4.307V62.81H38.6V59.964Zm1.436,14.227a2.845,2.845,0,1,1-2.871,2.845A2.858,2.858,0,0,1,40.036,74.191ZM7.018,50.005H21.373V52.85H7.018V50.005ZM12.76,55.7h8.613v2.845H12.76V55.7Zm60.293-7.114H54.391v2.846H71.618V75.614h2.871V50.005A1.35,1.35,0,0,0,73.053,48.582ZM63,62.81h4.307v2.845H63V62.81Z"/>
</svg>
