<?xml version="1.0" encoding="utf-8"?>
<!-- Generator: Adobe Illustrator 21.0.2, SVG Export Plug-In . SVG Version: 6.00 Build 0)  -->
<svg version="1.1" id="Layer_1" xmlns="http://www.w3.org/2000/svg" xmlns:xlink="http://www.w3.org/1999/xlink" x="0px" y="0px"
	 viewBox="0 0 105.2 28" style="enable-background:new 0 0 105.2 28;" xml:space="preserve">
<style type="text/css">
	.st0{fill:#424B54;}
	.st1{fill:url(#SVGID_1_);}
	.st2{fill:#FFFFFF;}
	.st3{opacity:0.9;fill:url(#SVGID_2_);}
	.st4{opacity:0.9;fill:url(#SVGID_3_);}
	.st5{opacity:0.9;fill:url(#SVGID_4_);}
	.st6{opacity:0.9;fill:url(#SVGID_5_);}
	.st7{opacity:0.9;fill:url(#SVGID_6_);}
	.st8{opacity:0.9;fill:url(#SVGID_7_);}
	.st9{opacity:0.9;fill:url(#SVGID_8_);}
	.st10{opacity:0.9;fill:url(#SVGID_9_);}
</style>
<g>
	<g>
		<path class="st0" d="M37.9,18.1h-2v-7.3h1.7c1.8,0,3,0.5,3,1.9c0,0.6-0.4,1.1-0.9,1.3c0.9,0.2,1.5,0.8,1.5,1.9
			C41.2,17.5,39.9,18.1,37.9,18.1z M37.6,12.1v1.5c1.1,0,1.4-0.2,1.4-0.7C39,12.3,38.6,12.1,37.6,12.1z M38,14.8h-0.3v2H38
			c1.2,0,1.5-0.4,1.5-1C39.5,15.2,39.1,14.8,38,14.8z"/>
		<path class="st0" d="M46.2,18.2c-2.1,0-3.8-1.4-3.8-3.7c0-2.4,1.7-3.7,3.8-3.7c2.1,0,3.9,1.4,3.9,3.7
			C50.1,16.8,48.3,18.2,46.2,18.2z M46.2,12.1c-1.1,0-2.1,0.9-2.1,2.4c0,1.5,0.9,2.4,2.1,2.4c1.2,0,2.1-0.8,2.1-2.4
			C48.3,13,47.4,12.1,46.2,12.1z"/>
		<path class="st0" d="M57.6,18.2c-3,0-2.3-3-4.2-3v2.9h-1.7v-7.3h1.7c1.9,0,3,0.7,3,2.1c0,1-0.7,1.5-1.2,1.6
			c1.1,0.3,1.2,2.2,2.7,2.2L57.6,18.2z M53.3,12.1V14c0.8,0,1.4-0.3,1.4-0.9C54.7,12.4,54.1,12.1,53.3,12.1z"/>
		<path class="st0" d="M65.1,18.2l-4.5-4.2v4.1h-1.7v-7.4h0.3l4.5,4.2v-4h1.7v7.4H65.1z"/>
		<path class="st0" d="M69,16.1v2h-1.7v-7.3H69c2.4,0,3.6,1.1,3.6,2.6C72.5,15.2,71.3,16.1,69,16.1z M69.1,12.2H69v2.6
			c0,0,0.1,0,0.1,0h0.1c0.9,0,1.6-0.5,1.6-1.3S70.1,12.2,69.1,12.2z"/>
		<path class="st0" d="M77.5,18.2c-2.1,0-3.8-1.4-3.8-3.7c0-2.4,1.7-3.7,3.8-3.7c2.1,0,3.9,1.4,3.9,3.7
			C81.4,16.8,79.7,18.2,77.5,18.2z M77.5,12.1c-1.1,0-2.1,0.9-2.1,2.4c0,1.5,0.9,2.4,2.1,2.4c1.2,0,2.1-0.8,2.1-2.4
			C79.6,13,78.7,12.1,77.5,12.1z"/>
		<path class="st0" d="M86.9,10.7l1.6,4.1l1.5-4h1.8l-3.1,7.4h-0.3l-1.6-4.3l-1.6,4.3h-0.3l-3.1-7.4h1.8l1.5,4
			c0.5-1.3,1.1-2.9,1.6-4.1H86.9z"/>
		<path class="st0" d="M92.8,18.1v-7.3H97v1.3h-2.5v1.4h1.8v1.4h-1.8v1.9h3.4l-0.3,1.4H92.8z"/>
		<path class="st0" d="M104.9,18.2c-3,0-2.3-3-4.2-3v2.9h-1.7v-7.3h1.7c1.9,0,3,0.7,3,2.1c0,1-0.7,1.5-1.2,1.6
			c1.1,0.3,1.2,2.2,2.7,2.2L104.9,18.2z M100.7,12.1V14c0.8,0,1.4-0.3,1.4-0.9C102,12.4,101.4,12.1,100.7,12.1z"/>
	</g>
	<linearGradient id="SVGID_1_" gradientUnits="userSpaceOnUse" x1="8.7361" y1="1.6197" x2="19.3575" y2="26.173">
		<stop  offset="0" style="stop-color:#EDDABF"/>
		<stop  offset="1" style="stop-color:#D4A361"/>
	</linearGradient>
	<path class="st1" d="M9,1L8.5,1.2C5.2,2.6,2.7,5.2,1.3,8.4L1.1,8.9c-1.3,3.3-1.3,6.9,0,10.2l0.2,0.5c1.3,3.3,3.9,5.8,7.2,7.2L9,27
		c3.3,1.3,6.9,1.3,10.2,0l0.5-0.2c3.3-1.3,5.8-3.9,7.2-7.2l0.2-0.5c1.3-3.3,1.3-6.9,0-10.2l-0.2-0.5c-1.3-3.3-3.9-5.8-7.2-7.2
		L19.2,1C15.9-0.3,12.3-0.3,9,1z"/>
	<polygon class="st2" points="8.5,19.6 6.1,14 8.5,8.4 14.1,6 19.7,8.4 22,14 19.7,19.6 14.1,22 	"/>
	<linearGradient id="SVGID_2_" gradientUnits="userSpaceOnUse" x1="12.7823" y1="5.395" x2="6.9689" y2="9.0962">
		<stop  offset="0" style="stop-color:#FFFFFF"/>
		<stop  offset="1" style="stop-color:#FFFFFF;stop-opacity:0"/>
	</linearGradient>
	<path class="st3" d="M14.1,6c0,0-3.7-1.5-7.4,1.9l1.7,0.4L14.1,6"/>
	
		<linearGradient id="SVGID_3_" gradientUnits="userSpaceOnUse" x1="186.4757" y1="-218.656" x2="180.6623" y2="-214.9547" gradientTransform="matrix(0.7071 -0.7071 0.7071 0.7071 29.8363 295.3122)">
		<stop  offset="0" style="stop-color:#FFFFFF"/>
		<stop  offset="1" style="stop-color:#FFFFFF;stop-opacity:0"/>
	</linearGradient>
	<path class="st4" d="M8.5,8.4c0,0-3.7,1.5-3.9,6.5L6.1,14L8.5,8.4"/>
	
		<linearGradient id="SVGID_4_" gradientUnits="userSpaceOnUse" x1="467.7234" y1="-254.2642" x2="461.91" y2="-250.5629" gradientTransform="matrix(4.489700e-11 -1 1 4.489700e-11 259.751 483.0321)">
		<stop  offset="0" style="stop-color:#FFFFFF"/>
		<stop  offset="1" style="stop-color:#FFFFFF;stop-opacity:0"/>
	</linearGradient>
	<path class="st5" d="M6.1,14c0,0-1.5,3.7,1.9,7.4l0.4-1.7L6.1,14"/>
	
		<linearGradient id="SVGID_5_" gradientUnits="userSpaceOnUse" x1="691.7744" y1="-80.5708" x2="685.961" y2="-76.8695" gradientTransform="matrix(-0.7071 -0.7071 0.7071 -0.7071 555.0632 453.1958)">
		<stop  offset="0" style="stop-color:#FFFFFF"/>
		<stop  offset="1" style="stop-color:#FFFFFF;stop-opacity:0"/>
	</linearGradient>
	<path class="st6" d="M8.5,19.6c0,0,1.5,3.7,6.5,3.9L14.1,22L8.5,19.6"/>
	
		<linearGradient id="SVGID_6_" gradientUnits="userSpaceOnUse" x1="727.3826" y1="200.6769" x2="721.5692" y2="204.3782" gradientTransform="matrix(-1 0 0 -1 742.7831 223.281)">
		<stop  offset="0" style="stop-color:#FFFFFF"/>
		<stop  offset="1" style="stop-color:#FFFFFF;stop-opacity:0"/>
	</linearGradient>
	<path class="st7" d="M14.1,22c0,0,3.7,1.5,7.4-1.9l-1.7-0.4L14.1,22"/>
	
		<linearGradient id="SVGID_7_" gradientUnits="userSpaceOnUse" x1="553.6891" y1="424.7279" x2="547.8758" y2="428.4292" gradientTransform="matrix(-0.7071 0.7071 -0.7071 -0.7071 712.9468 -72.0312)">
		<stop  offset="0" style="stop-color:#FFFFFF"/>
		<stop  offset="1" style="stop-color:#FFFFFF;stop-opacity:0"/>
	</linearGradient>
	<path class="st8" d="M19.7,19.6c0,0,3.7-1.5,3.9-6.5L22.1,14L19.7,19.6"/>
	
		<linearGradient id="SVGID_8_" gradientUnits="userSpaceOnUse" x1="272.4414" y1="460.3361" x2="266.6281" y2="464.0374" gradientTransform="matrix(-4.489700e-11 1 -1 -4.489700e-11 483.0321 -259.751)">
		<stop  offset="0" style="stop-color:#FFFFFF"/>
		<stop  offset="1" style="stop-color:#FFFFFF;stop-opacity:0"/>
	</linearGradient>
	<path class="st9" d="M22,14c0,0,1.5-3.7-1.9-7.4l-0.4,1.7L22,14"/>
	
		<linearGradient id="SVGID_9_" gradientUnits="userSpaceOnUse" x1="48.3904" y1="286.6427" x2="42.5771" y2="290.344" gradientTransform="matrix(0.7071 0.7071 -0.7071 0.7071 187.7198 -229.9147)">
		<stop  offset="0" style="stop-color:#FFFFFF"/>
		<stop  offset="1" style="stop-color:#FFFFFF;stop-opacity:0"/>
	</linearGradient>
	<path class="st10" d="M19.7,8.4c0,0-1.5-3.7-6.5-3.9L14.1,6L19.7,8.4"/>
</g>
</svg>
